<?xml version="1.0" standalone="no"?>
<!DOCTYPE svg PUBLIC "-//W3C//DTD SVG 20010904//EN"
 "http://www.w3.org/TR/2001/REC-SVG-20010904/DTD/svg10.dtd">
<svg version="1.0" xmlns="http://www.w3.org/2000/svg"
 width="242.000000pt" height="84.000000pt" viewBox="0 0 242.000000 84.000000"
 preserveAspectRatio="xMidYMid meet">

<g transform="translate(0.000000,84.000000) scale(0.100000,-0.100000)"
fill="#a1a1aa" stroke="none">
<path d="M473 818 c2 -7 16 -52 31 -100 15 -49 31 -88 36 -88 13 0 14 -8 -15
85 -13 43 -23 80 -21 82 1 2 384 -122 850 -275 466 -152 841 -278 834 -279 -7
-2 -391 71 -853 161 l-839 163 -237 -126 c-131 -69 -236 -128 -234 -130 4 -3
2056 -119 2170 -122 28 -1 41 -4 30 -6 -36 -10 -1940 -160 -1946 -154 -3 3 -2
58 1 121 4 63 4 120 1 125 -9 15 -19 -79 -20 -183 -1 -91 -1 -92 22 -88 12 3
494 42 1070 88 577 45 1054 86 1060 90 6 4 9 9 7 11 -6 5 -1936 637 -1945 637
-4 0 -5 -6 -2 -12z m1151 -489 c355 -69 573 -115 550 -117 -21 -1 -488 22
-1036 53 -548 30 -1009 55 -1025 55 -16 0 -23 4 -17 9 5 5 98 56 206 113 l198
105 267 -52 c148 -29 533 -104 857 -166z"/>
</g>
</svg>
